<svg width="162" height="38" viewBox="0 0 162 38" fill="none" xmlns="http://www.w3.org/2000/svg">
<path d="M158.73 19C158.73 16.1594 161 16.1594 161 13.3188C161 10.4782 158.73 10.4782 158.73 7.63756C158.73 5.07154 160.58 4.82536 160.943 2.70437C161.023 2.24987 160.818 1.79537 160.433 1.47344C160.047 1.1515 159.513 1 158.98 1.03787C155.905 1.303 155.61 2.89374 151.989 2.89374C148.052 2.89374 148.052 1 144.114 1C140.176 1 140.176 2.89374 136.227 2.89374C132.277 2.89374 132.289 1 128.351 1C124.413 1 124.413 2.89374 120.464 2.89374C116.515 2.89374 116.526 1 112.577 1C108.627 1 108.639 2.89374 104.69 2.89374C100.74 2.89374 100.752 1 96.8025 1C92.8533 1 92.8647 2.89374 88.9155 2.89374C84.9662 2.89374 84.9776 1 81.0284 1H80.9716C77.0338 1 77.0338 2.89374 73.0845 2.89374C69.1353 2.89374 69.1467 1 65.1975 1C61.2482 1 61.2596 2.89374 57.3104 2.89374C53.3612 2.89374 53.3725 1 49.4233 1C45.4741 1 45.4854 2.89374 41.5362 2.89374C37.587 2.89374 37.5983 1 33.6491 1C29.6999 1 29.7113 2.89374 25.7734 2.89374C21.8355 2.89374 21.8355 1 17.8863 1C13.9371 1 13.9484 2.89374 10.0106 2.89374C6.39045 2.89374 6.0954 1.29353 3.02 1.03787C2.48663 0.990531 1.94191 1.1515 1.56742 1.47344C1.19292 1.79537 0.977303 2.25934 1.05674 2.70437C1.41989 4.81589 3.26966 5.07154 3.26966 7.63756C3.26966 10.4782 1 10.4782 1 13.3188C1 16.1594 3.26966 16.1594 3.26966 19C3.26966 21.8406 1 21.8406 1 24.6812C1 27.5218 3.26966 27.5218 3.26966 30.3624C3.26966 32.9285 1.41989 33.1746 1.05674 35.2956C0.977303 35.7501 1.18157 36.2046 1.56742 36.5266C1.95326 36.839 2.48663 37 3.02 36.9621C6.0954 36.697 6.39045 35.1063 10.0106 35.1063C13.9484 35.1063 13.9484 37 17.8863 37C21.8242 37 21.8242 35.1063 25.7734 35.1063C29.7226 35.1063 29.7113 37 33.6491 37C37.587 37 37.587 35.1063 41.5362 35.1063C45.4854 35.1063 45.4741 37 49.4233 37C53.3725 37 53.3612 35.1063 57.3104 35.1063C61.2596 35.1063 61.2482 37 65.1975 37C69.1467 37 69.1353 35.1063 73.0845 35.1063C77.0338 35.1063 77.0224 37 80.9716 37H81.0284C84.9662 37 84.9662 35.1063 88.9155 35.1063C92.8647 35.1063 92.8533 37 96.8025 37C100.752 37 100.74 35.1063 104.69 35.1063C108.639 35.1063 108.627 37 112.577 37C116.526 37 116.515 35.1063 120.464 35.1063C124.413 35.1063 124.402 37 128.351 37C132.3 37 132.289 35.1063 136.227 35.1063C140.164 35.1063 140.164 37 144.114 37C148.063 37 148.052 35.1063 151.989 35.1063C155.61 35.1063 155.905 36.7065 158.98 36.9621C159.513 37.0095 160.058 36.8485 160.433 36.5266C160.807 36.2046 161.023 35.7407 160.943 35.2956C160.58 33.1841 158.73 32.9285 158.73 30.3624C158.73 27.5218 161 27.5218 161 24.6812C161 21.8406 158.73 21.8406 158.73 19Z" fill="#FFFCF1" stroke="#E3242D" stroke-miterlimit="10"/>
<path d="M23.8413 18.992C23.8413 21.952 26.3213 24.336 29.4573 24.336C30.5613 24.336 31.3933 24.128 32.3693 23.616V22.064C31.2973 22.656 30.5133 22.896 29.5533 22.896C27.1213 22.896 25.2973 21.248 25.2973 19.008C25.2973 16.816 27.0893 15.136 29.4093 15.136C30.4173 15.136 31.2493 15.392 32.3693 15.92V14.384C31.2653 13.936 30.4333 13.728 29.3613 13.728C26.2893 13.728 23.8413 16.096 23.8413 18.992ZM35.1615 18.96C35.1615 21.952 37.5935 24.336 40.6495 24.336C43.7375 24.336 46.1375 21.984 46.1375 18.96C46.1375 16.096 43.6735 13.728 40.6975 13.728C37.6575 13.728 35.1615 16.064 35.1615 18.96ZM40.5695 15.12C42.9375 15.12 44.6975 16.848 44.6975 19.024C44.6975 21.152 42.9055 22.912 40.7455 22.912C38.4255 22.912 36.5855 21.216 36.5855 19.024C36.5855 16.832 38.4095 15.12 40.5695 15.12ZM51.5213 13.632L48.8013 24H50.1293L51.7933 17.616H51.8253L54.6413 24.368L57.4413 17.664H57.4733L59.1213 24L60.4493 24L57.7293 13.632L54.6413 21.056L51.5213 13.632ZM63.049 18.96C63.049 21.952 65.481 24.336 68.537 24.336C71.625 24.336 74.025 21.984 74.025 18.96C74.025 16.096 71.561 13.728 68.585 13.728C65.545 13.728 63.049 16.064 63.049 18.96ZM68.457 15.12C70.825 15.12 72.585 16.848 72.585 19.024C72.585 21.152 70.793 22.912 68.633 22.912C66.313 22.912 64.473 21.216 64.473 19.024C64.473 16.832 66.297 15.12 68.457 15.12ZM83.6226 14.048V24H88.2146V22.656H84.9666V14.048H83.6226ZM91.3789 14.048V24H95.9709V22.656H92.7229V14.048H91.3789ZM98.8311 14.048V24L104.351 24V22.656L100.175 22.656V19.232H104.351V17.888H100.175V15.408L104.351 15.408V14.048L98.8311 14.048ZM107.127 19.008C107.127 21.28 108.871 24.336 112.775 24.336C114.391 24.336 115.607 23.968 116.695 22.848C118.055 21.456 118.103 20.08 118.103 18.96H113.863V20.32H116.551C116.071 22 114.759 22.912 112.807 22.912C109.735 22.912 108.567 20.576 108.567 19.072C108.567 16.832 110.279 15.136 112.647 15.136C113.959 15.136 115.175 15.648 116.167 16.624L117.175 15.632C115.751 14.224 114.295 13.728 112.519 13.728C109.479 13.728 107.127 16.096 107.127 19.008ZM120.559 24H121.967L123.103 21.456H127.327L128.495 24H129.919L125.215 13.664L120.559 24ZM125.215 16.784L126.815 20.32H123.615L125.215 16.784ZM132.967 14.048V24H134.327V19.904H134.631L137.399 24H138.951L136.055 19.744C137.815 19.376 138.759 18.288 138.759 16.896C138.759 15.072 137.047 14.048 135.191 14.048H132.967ZM134.327 15.248H134.711C136.119 15.248 137.335 15.6 137.335 16.976C137.335 18.016 136.583 18.72 134.583 18.72H134.327V15.248Z" fill="#E3242D"/>
</svg>
