<svg width="179" height="47" viewBox="0 0 179 47" fill="none" xmlns="http://www.w3.org/2000/svg">
<path d="M29.8099 7.02029C31.8771 8.10787 33.5239 9.11188 34.7504 10.0323C40.465 14.3964 43.3663 19.5118 43.446 25.3489C43.4991 29.1933 42.3205 32.3558 39.9103 34.8366C38.4182 36.3863 36.5894 37.5027 34.4239 38.1856C32.8872 38.6835 31.3124 38.9482 29.6884 38.9636C28.3464 38.9786 26.9228 38.8366 25.4096 38.5075C24.1893 38.2648 22.4807 37.7841 20.2676 37.0762C18.982 36.6656 17.8402 36.3117 16.8531 36.0308C15.6423 37.0868 14.5208 37.8364 13.4748 38.2768C11.7811 38.9971 9.97315 39.3706 8.05095 39.3971C6.39716 39.4207 4.87859 39.1892 3.47909 38.7136C2.7305 38.4379 1.81627 37.932 0.706583 37.2039C1.61599 35.8202 2.48241 34.7943 3.31943 34.1291C5.56499 32.3345 8.43789 31.4258 11.957 31.3785C13.2014 31.3581 14.7198 31.5191 16.5041 31.8316C17.3691 29.537 18.2417 26.7787 19.122 23.5569C20.0752 20.1099 20.9126 17.4574 21.6317 15.613C22.3508 13.7686 23.1001 12.198 23.9066 10.9065C24.2747 10.3314 24.8621 9.50385 25.6715 8.41034C24.2039 7.6393 22.9508 7.13643 21.9013 6.88546C20.2334 6.48336 18.5387 6.28733 16.8443 6.30278C14.3717 6.33265 12.3198 6.7985 10.7077 7.67602C9.86502 8.15684 9.19336 8.77039 8.70079 9.54634C8.32462 10.1622 8.14371 10.8591 8.14727 11.621C8.16471 12.6675 8.60744 13.3475 9.47537 13.661C9.96088 13.8421 10.6957 13.9036 11.6988 13.8917C11.7178 13.9377 11.7315 14.0109 11.7506 14.1275C11.7452 14.1546 11.7642 14.2007 11.7778 14.2739C11.7779 14.3444 11.7888 14.4311 11.8025 14.5043C11.8052 14.5612 11.8081 14.6182 11.8271 14.6643C9.52833 14.9542 7.32447 15.263 5.19381 15.5582C5.06822 14.7721 5.01323 14.1269 5.01268 13.6335C4.99763 12.2914 5.47065 10.976 6.44793 9.67624C7.59577 8.15669 9.38649 6.94817 11.8093 6.03451C14.0044 5.20243 16.2326 4.77161 18.4801 4.73927C21.1804 4.6983 24.4046 5.283 28.1582 6.4663C28.3424 6.31969 28.6051 6.0619 28.9545 5.72261C29.5313 5.16075 30.0053 4.76163 30.3439 4.54706C30.5746 4.73388 30.8406 4.95593 31.1337 5.25383L31.2016 5.33778C31.0933 5.4572 30.9335 5.62273 30.7223 5.83444C30.2835 6.26872 29.964 6.67035 29.7719 6.99862M2.61927 35.9491C3.2655 36.8106 4.17982 37.3871 5.37308 37.6948C6.28161 37.946 7.37161 38.064 8.61602 38.0436C9.93092 38.0232 11.1126 37.6803 12.1747 37.0176C12.7219 36.6753 13.3937 36.1323 14.1982 35.4184C12.5839 34.4631 10.7995 34.0097 8.85017 34.0308C6.64601 34.0577 4.57265 34.7025 2.62197 35.9356M20.0732 32.9501C24.7798 35.3659 28.7286 36.5598 31.9223 36.5183C36.6723 36.4479 39.0114 33.4738 38.9316 27.5662C38.8669 23.0007 37.4173 18.9491 34.5557 15.406C32.9811 13.472 30.7964 11.5577 27.9991 9.67657C27.4823 10.645 27.0875 11.4967 26.7792 12.267C26.171 13.8375 25.4932 16.254 24.7458 19.5164C24.4382 20.8506 24.1549 21.9923 23.9092 22.9442C23.4423 24.867 22.4422 27.5576 20.9224 31.0187C20.6249 31.6643 20.3409 32.3127 20.0732 32.9501Z" fill="#E3242D"/>
<path d="M54.7627 36.7037C53.2695 37.3371 51.4701 38.0929 49.3835 38.9465C48.0656 38.6986 46.9806 38.2714 46.1042 37.6461C44.7692 36.7041 44.082 35.5526 44.0724 34.1835C44.0511 32.1637 45.0495 30.403 47.0785 28.9177C48.4655 27.8967 49.8937 27.3773 51.3632 27.3594C53.158 27.3357 54.7723 28.3614 56.2386 30.4149L52.3612 32.4066L48.1015 34.5477C48.9623 35.7478 50.3512 36.3481 52.2734 36.3216C52.8671 36.3128 53.6316 36.2251 54.5423 36.0398C54.5396 36.0533 54.5668 36.1292 54.613 36.2512C54.6782 36.4192 54.7326 36.5709 54.7762 36.7064M52.7554 30.9909C51.5826 29.5878 50.4377 28.895 49.3505 28.9044C48.6999 28.9159 48.1989 29.4506 47.8449 30.5219C47.6504 31.1457 47.5726 31.8913 47.5709 32.7508C47.5711 32.9622 47.6257 33.255 47.7237 33.6127C49.6856 32.6779 51.3682 31.8003 52.7527 31.0044" fill="#E3242D"/>
<path d="M69.4516 7.48828C68.0942 10.7703 66.8479 13.9899 65.71 17.1605C65.3452 18.2156 64.5889 20.6728 63.4708 24.5239L62.7415 26.9865C61.7854 30.3061 61.2886 32.0255 61.2318 32.1692C60.6889 33.9782 60.4054 35.0494 60.4112 35.3748C60.4146 35.9956 60.6914 36.3043 61.2146 36.2956C61.5833 36.2844 62.0496 36.1375 62.6159 35.8414C62.6512 35.8766 62.6837 35.9253 62.7353 36.0201L62.8113 36.1339L62.8874 36.2477C62.9526 36.3453 62.9852 36.394 63.0069 36.4265C61.7472 37.3036 60.4738 38.1076 59.176 38.822C57.766 38.6826 57.0629 37.965 57.0371 36.6772C57.0308 35.9289 57.4544 34.0821 58.3052 31.1503C59.85 25.7913 60.7792 22.6074 61.0681 21.5795C61.3707 20.6249 61.7704 19.323 62.2674 17.6741C63.4342 13.6494 64.4908 10.5331 65.4319 8.35222L69.4516 7.48828Z" fill="#E3242D"/>
<path d="M70.7766 36.3364C69.3354 37.3465 68.0511 38.1342 66.9185 38.7265C65.6306 38.6818 64.99 38.0048 64.9722 36.6763C64.9634 36.0121 65.1251 35.0575 65.468 33.829C65.6949 33.0425 66.0108 31.9495 66.4431 30.5555C66.6132 29.9832 66.8536 29.129 67.194 27.9845C67.9095 27.7884 68.7388 27.5869 69.6549 27.3744C70.1997 27.2572 70.582 27.1782 70.8314 27.1291C70.194 29.3421 69.5133 31.7016 68.8031 34.2102C68.7006 34.655 68.6686 35.0292 68.7231 35.3219C68.8078 35.8884 69.0467 36.1756 69.4561 36.1724C69.6676 36.1722 69.9629 36.0336 70.3259 35.7675L70.7712 36.3634L70.7766 36.3364ZM71.3435 19.6619C72.2141 19.9619 72.6595 20.5579 72.6659 21.4471C72.6746 21.9704 72.5369 22.4504 72.2527 22.8873C71.8116 23.5466 71.1964 23.8753 70.3912 23.8843C69.67 23.8959 69.1195 23.6878 68.7665 23.2652C68.5602 23.0269 68.4515 22.7234 68.4484 22.3845C68.4449 21.6932 68.7234 21.072 69.2976 20.5237C69.6605 20.1871 70.0723 19.9589 70.5114 19.8066C70.9369 19.6516 71.216 19.5943 71.3435 19.6619Z" fill="#E3242D"/>
<path d="M82.3476 36.4808C79.8923 37.3457 78.0467 38.05 76.7975 38.5909C75.699 38.1611 74.7901 37.628 74.0709 36.9917C72.8795 35.895 72.2817 34.6485 72.2612 33.2631C72.235 31.6934 72.9627 30.3017 74.401 29.0936C76.0424 27.7145 78.0425 27.0127 80.3606 26.9803C81.1929 26.9767 81.925 27.0518 82.565 27.2354C83.0315 27.3705 83.5958 27.6519 84.2605 28.0659C83.676 29.0209 83.067 29.957 82.4444 30.8903C80.3448 29.8244 78.5169 29.3059 76.9634 29.3212C76.752 29.3214 76.3941 29.349 75.9035 29.4065C75.5512 29.6183 75.3755 30.0767 75.3925 30.7707C75.4187 32.3405 76.0274 33.6032 77.2457 34.5643C78.342 35.4306 79.5544 35.855 80.8693 35.8345L81.3491 35.8312C81.6609 35.8228 81.8995 35.8279 82.0839 35.8223L82.3178 36.489L82.3476 36.4808Z" fill="#E3242D"/>
<path d="M98.3349 35.8258C98.3349 35.8258 98.4082 35.953 98.449 36.0316C98.4816 36.0804 98.5223 36.159 98.6011 36.2592C98.6662 36.3567 98.6988 36.4055 98.7205 36.438C98.2438 36.8506 97.702 37.2362 97.0897 37.6219C96.304 38.1 95.7214 38.3365 95.3391 38.345C94.843 38.3592 94.4578 38.1698 94.1997 37.7661C93.9689 37.4383 93.8411 37.0183 93.8324 36.495C93.8315 35.7196 93.9739 34.578 94.265 33.0432C93.5526 33.6486 91.9062 35.3368 89.3309 38.0807L89.0059 38.4389C88.0922 38.4264 87.2704 38.1643 86.5161 37.6337C85.2789 36.7675 84.6595 35.7 84.6418 34.442C84.6268 33.1 85.1486 31.752 86.2071 30.398C87.1493 29.204 88.3222 28.2673 89.734 27.6177C90.7772 27.1204 91.8967 26.8779 93.1004 26.8495C94.8816 26.8231 96.5034 27.2442 97.982 28.102C98.2015 27.9906 98.3938 27.8738 98.5835 27.7706C99.0414 27.5234 99.3557 27.3603 99.5237 27.295C99.5373 27.2977 99.5725 27.3329 99.6186 27.3844C99.749 27.5794 99.8659 27.7718 99.9745 27.9344C99.2945 28.3771 98.7988 28.8141 98.4577 29.2537C98.2493 29.5223 98.0949 29.8018 98.0085 30.0947C97.9653 30.2411 97.9086 30.3849 97.8464 30.5557C97.6358 31.3314 97.3089 32.4786 96.8524 33.9946C96.7528 34.6373 96.7102 35.1362 96.716 35.4616C96.7194 36.0824 96.8851 36.3832 97.2104 36.3774C97.4517 36.369 97.8256 36.1896 98.3186 35.8366M89.9512 35.2441C90.8398 34.6737 92.2619 33.4765 94.2363 31.628C94.2905 31.5683 94.3772 31.4868 94.4936 31.3972C94.7997 31.1339 94.9458 30.8951 94.9483 30.6701C94.9396 30.1469 94.4564 29.6703 93.488 29.2241C92.4654 28.767 91.5678 28.5321 90.8168 28.5519L90.6623 28.5494L90.4779 28.555L90.337 28.5552L90.1958 28.5553L90.1282 28.5419C89.405 29.2015 88.9419 29.6873 88.7037 30.0346C88.2056 30.7672 87.9653 31.551 87.9662 32.3968C87.9754 33.343 88.2988 34.1262 88.9448 34.7761C89.2271 35.0578 89.5608 35.2228 89.9512 35.2441Z" fill="#E3242D"/>
<path d="M110.324 19.1249C109.513 21.2189 108.594 23.8552 107.54 27.0284L111.271 26.9809C111.092 27.5233 110.957 27.9898 110.876 28.3965C110.871 28.4236 110.865 28.4508 110.863 28.4643L110.857 28.4915L110.838 28.5159L107.094 28.5607L106.449 30.6735L105.655 33.3205C105.503 33.8683 105.436 34.2072 105.447 34.3645C105.467 35.3269 105.896 35.7928 106.731 35.7756C107.097 35.7779 107.601 35.5822 108.222 35.2263L108.672 35.9361C107.426 36.675 105.922 37.433 104.144 38.2212C102.423 38.1608 101.557 37.3403 101.539 35.7299C101.519 34.8379 101.883 33.2189 102.602 30.8811C102.915 29.8722 103.123 29.1101 103.239 28.5976L101.019 28.6353C101.2 27.9383 101.343 27.4312 101.464 27.103L103.712 27.0706L104.738 23.4691L105.621 20.4451C106.204 20.2791 106.892 20.0777 107.7 19.8436C108.917 19.4654 109.795 19.2312 110.354 19.1167" fill="#E3242D"/>
<path d="M121.522 35.8267C120.029 36.46 118.23 37.2157 116.143 38.0694C114.825 37.8214 113.74 37.3943 112.864 36.769C111.526 35.8406 110.842 34.6755 110.832 33.3063C110.797 31.2838 111.809 29.5259 113.838 28.0406C115.225 27.0197 116.653 26.5002 118.123 26.4823C119.918 26.4586 121.532 27.4844 122.998 29.5378L119.121 31.5294L114.875 33.6733C115.736 34.8734 117.124 35.4737 119.033 35.4445C119.64 35.4384 120.391 35.348 121.302 35.1627C121.299 35.1762 121.326 35.2521 121.373 35.3741C121.438 35.5421 121.492 35.6939 121.536 35.8294M119.515 30.1137C118.342 28.7106 117.197 28.0179 116.11 28.0272C115.459 28.0388 114.959 28.5734 114.605 29.6447C114.41 30.2685 114.332 31.0143 114.33 31.8737C114.331 32.0852 114.385 32.3779 114.483 32.7357C116.445 31.8008 118.128 30.9232 119.512 30.1273" fill="#E3242D"/>
<path d="M135.347 27.3282L134.507 28.4298L133.181 30.2098C132.459 29.0936 131.284 28.55 129.66 28.5654C128.63 28.5719 127.884 28.7761 127.454 29.1697C127.134 29.4303 126.98 29.7097 126.98 29.9917C126.98 30.2032 127.189 30.3575 127.637 30.4465C127.894 30.4977 128.29 30.5623 128.787 30.6187C128.968 30.6266 129.174 30.6535 129.391 30.6967L129.722 30.7342C131.577 30.9762 132.751 31.2378 133.245 31.5192C133.739 31.8007 134.002 32.2477 134.022 32.8577C133.559 36.1767 131.278 37.8656 127.165 37.9217C125.498 37.9426 124.131 37.5157 123.081 36.6303C123.268 36.3997 123.547 36.0605 123.92 35.5992L124.291 35.1514C124.551 34.8366 124.686 34.6521 124.722 34.6168C126.1 35.5534 127.573 36.0153 129.115 35.9837C129.836 35.9721 130.544 35.8168 131.238 35.5178C131.885 35.2378 132.197 34.9473 132.199 34.6518C132.185 34.0852 130.994 33.6935 128.6 33.4711C127.48 33.3612 126.618 33.232 126.027 33.0862C125.278 32.8105 124.903 32.3555 124.895 31.7618C124.886 31.2385 125.121 30.6228 125.559 29.9065C126.377 28.6314 127.514 27.6595 128.986 26.9936C129.934 26.5479 130.896 26.3164 131.87 26.3126C132.987 26.2951 134.131 26.6355 135.333 27.3255" fill="#E3242D"/>
<path d="M147.951 27.1702L147.112 28.2718L145.785 30.0518C145.063 28.9356 143.888 28.392 142.264 28.4074C141.234 28.414 140.489 28.6181 140.058 29.0117C139.736 29.2859 139.584 29.5518 139.584 29.8338C139.585 30.0453 139.807 30.2022 140.241 30.2885C140.498 30.3397 140.881 30.4017 141.391 30.4608C141.572 30.4687 141.778 30.4955 141.995 30.5387L142.326 30.5762C144.181 30.8181 145.355 31.0798 145.849 31.3612C146.343 31.6426 146.606 32.0897 146.628 32.6861C146.166 36.0051 143.882 37.7076 139.772 37.7502C138.105 37.771 136.738 37.3442 135.688 36.4588C135.874 36.2282 136.156 35.8754 136.527 35.4276L136.895 34.9934C137.155 34.6786 137.304 34.4968 137.326 34.4588C138.704 35.3953 140.177 35.8573 141.719 35.8258C142.441 35.8141 143.148 35.6588 143.842 35.3598C144.489 35.0799 144.814 34.7921 144.803 34.4939C144.789 33.9273 143.598 33.5355 141.204 33.3131C140.084 33.2032 139.222 33.074 138.631 32.9283C137.885 32.639 137.507 32.1975 137.499 31.6038C137.49 31.0805 137.712 30.4621 138.164 29.7485C138.981 28.4734 140.119 27.5015 141.604 26.8383C142.552 26.3926 143.514 26.1611 144.487 26.1573C145.604 26.1398 146.749 26.4802 147.951 27.1702Z" fill="#E3242D"/>
<path d="M159.638 35.3153C158.158 35.9514 156.345 36.7044 154.259 37.558C152.941 37.3101 151.856 36.8829 150.979 36.2576C149.644 35.3156 148.957 34.1641 148.947 32.795C148.926 30.7752 149.925 29.0146 151.954 27.5293C153.341 26.5083 154.769 25.9888 156.238 25.9709C158.033 25.9472 159.647 26.973 161.111 29.04L157.233 31.0316L152.988 33.1755C153.848 34.3756 155.237 34.9759 157.146 34.9466C157.753 34.9405 158.504 34.8503 159.415 34.6649C159.412 34.6785 159.442 34.7407 159.485 34.8762C159.551 35.0443 159.605 35.1961 159.649 35.3316M157.628 29.6159C156.455 28.2129 155.31 27.5201 154.223 27.5294C153.572 27.541 153.071 28.0757 152.717 29.147C152.523 29.7708 152.445 30.5164 152.443 31.3759C152.443 31.5873 152.498 31.8801 152.596 32.2379C154.558 31.303 156.24 30.4254 157.625 29.6295" fill="#E3242D"/>
<path d="M166.838 25.8234C167.042 26.6393 167.138 27.504 167.156 28.4095C167.176 29.6539 167.02 31.0043 166.702 32.4633L166.729 32.4687L166.726 32.4822L166.753 32.4876L166.772 32.5336L166.8 32.539L166.797 32.5526C167.097 32.1754 167.474 31.7005 167.912 31.1253C169.038 29.6437 169.962 28.5447 170.688 27.801C171.722 26.7804 172.89 26.0823 174.202 25.723C175.896 25.778 176.762 26.6691 176.786 28.3933C176.809 29.4832 176.482 30.9124 175.828 32.6429C175.687 32.9955 175.563 33.3372 175.441 33.6654C175.369 33.961 175.336 34.1237 175.339 34.1806C175.35 34.5493 175.527 34.7254 175.906 34.7304C176.204 34.7192 176.53 34.5725 176.914 34.2684C176.95 34.3036 176.985 34.3387 177.031 34.3902L177.05 34.4363L177.194 34.634C177.27 34.7478 177.327 34.8156 177.36 34.8643L177.007 35.0762C175.452 36.0919 174.206 36.8307 173.266 37.3062C171.918 36.996 171.28 36.3053 171.338 35.2316C171.362 34.7571 171.519 34.1117 171.792 33.3062C171.832 33.1733 171.895 33.0024 171.946 32.8153C172.054 32.5549 172.17 32.2538 172.308 31.9148C172.768 30.7376 173 29.8535 172.988 29.2733C172.974 28.7067 172.708 28.4141 172.188 28.4093C171.933 28.415 171.681 28.4777 171.472 28.6054C171.201 28.7629 169.885 30.2772 167.524 33.1482C166.996 33.8185 165.922 35.2539 164.3 37.4545C163.576 37.2683 162.789 37.0414 161.957 36.7631L161.678 36.6794L161.831 36.1885C162.261 34.7375 162.547 33.7232 162.69 33.1455C163.028 31.8031 163.2 30.5829 163.174 29.5066C163.168 28.8993 163.034 28.2244 162.779 27.5252C163.925 27.0765 165.277 26.5138 166.833 25.8505" fill="#E3242D"/>
</svg>
