<svg width="283" height="22" viewBox="0 0 283 22" fill="none" xmlns="http://www.w3.org/2000/svg">
<path d="M9.6784 6.39814C9.6784 7.4453 9.48386 8.13529 9.10288 8.48434C8.72191 8.82528 7.96806 9.00386 6.84135 9.00386L5.08238 9.03633L3.65574 9.01198C2.13184 9.01198 1.15914 8.80904 0.721422 8.41129C0.283705 8.01353 0.0648469 7.3966 0.0648469 6.55238L0 4.96134C0 3.71937 0.178329 2.8102 0.543093 2.22574C0.907857 1.65752 1.6536 1.36529 2.77221 1.36529L4.92836 1.30847C5.55252 1.30847 6.07129 1.30847 6.48469 1.3247C6.88998 1.33282 7.39255 1.37341 7.96806 1.43023C8.55169 1.48705 8.96508 1.74681 9.21637 2.19327C9.46765 2.64785 9.58924 3.25667 9.58924 4.04407L7.35202 4.04407C7.35202 3.70313 7.27096 3.46772 7.10074 3.35408C6.93051 3.24043 6.66302 3.18361 6.29015 3.18361H5.64168L5.00942 3.17549H3.84218C3.14507 3.18361 2.72357 3.31349 2.56145 3.57325C2.40744 3.83301 2.32638 4.36065 2.32638 5.16428C2.32638 5.96792 2.41555 6.52802 2.60198 6.77967C2.78031 7.03131 3.26666 7.15307 4.05293 7.15307L4.95268 7.17742H6.13614C6.59817 7.16931 6.92241 7.10437 7.12505 6.97449C7.31959 6.84461 7.41686 6.54426 7.41686 6.07344H9.6784V6.40626V6.39814ZM11.2996 2.8102V1.38152L13.2612 1.38152V2.8102L11.2996 2.8102ZM11.2996 8.95516L11.2996 3.65443L13.2612 3.65443L13.2612 8.96328H11.2996V8.95516ZM17.614 4.95323V6.64979C17.614 6.99884 17.6708 7.24237 17.7762 7.38848C17.8896 7.5346 18.1085 7.60765 18.4408 7.60765C18.7326 7.60765 18.9515 7.55895 19.0812 7.46154C19.2109 7.36413 19.2838 7.17742 19.2838 6.89331V6.6579H20.8159C20.8159 7.59954 20.6699 8.2327 20.37 8.57364C20.0701 8.91457 19.4379 9.07692 18.4733 9.07692C17.2817 9.07692 16.5116 8.93081 16.1469 8.63046C15.7821 8.33011 15.6038 7.86741 15.6038 7.24236V4.96946H14.5906V3.66254H15.6038V2.36374L17.6221 2.36374V3.66254L20.824 3.66254V4.96946L17.6221 4.96946L17.614 4.95323ZM22.3398 8.95516V1.38152L24.3014 1.38152V8.96328H22.3398V8.95516ZM28.3138 3.58137L30.3646 3.53266C31.1833 3.53266 31.8155 3.65443 32.2532 3.89795C32.6991 4.14148 32.9179 4.63664 32.9179 5.37534V8.95516H30.9563V8.0947C30.8023 8.51681 30.5267 8.78469 30.1295 8.89834C29.7323 9.01198 29.2216 9.0688 28.5894 9.0688H28.2246C27.3735 9.0688 26.7493 8.96328 26.3522 8.75222C25.955 8.54117 25.7523 8.046 25.7523 7.27484C25.7523 6.71473 25.9063 6.29262 26.2144 6.0085C26.5224 5.72439 26.952 5.57828 27.5194 5.57828C27.8112 5.55392 28.1111 5.54581 28.4192 5.54581H29.3027C29.708 5.54581 30.0322 5.57828 30.2997 5.65133C30.5591 5.71627 30.778 5.87862 30.9563 6.11403V5.53769C30.9563 5.22111 30.8914 5.00193 30.7536 4.8964C30.6158 4.78276 30.3889 4.73405 30.0646 4.73405L29.1568 4.7097L28.5083 4.73405C28.3219 4.73405 28.176 4.75841 28.0868 4.81523C27.9977 4.87205 27.949 4.9857 27.949 5.15617H25.9874C25.9874 4.54735 26.2063 4.14148 26.6359 3.91419C27.0736 3.69501 27.6248 3.58137 28.3138 3.58137ZM29.0595 7.81871H29.2297C29.6594 7.81871 30.016 7.79436 30.2916 7.75377C30.5672 7.71318 30.7455 7.64824 30.8347 7.56707C30.9158 7.48589 30.9644 7.35601 30.9644 7.17742C30.9644 6.96637 30.8752 6.82025 30.705 6.7472C30.5348 6.67414 30.324 6.64167 30.0809 6.64167L28.9541 6.61732C28.6056 6.61732 28.3057 6.64979 28.0625 6.71473C27.8193 6.77967 27.6977 6.94202 27.6977 7.19366C27.6977 7.4453 27.795 7.60765 27.9814 7.68883C28.1679 7.77 28.4192 7.81059 28.7191 7.81059H29.0514L29.0595 7.81871ZM34.5472 8.95516V1.38152L36.5088 1.38152V8.96328H34.5472V8.95516ZM40.8617 4.95323V6.64979C40.8617 6.99884 40.9184 7.24237 41.0238 7.38848C41.1291 7.5346 41.3561 7.60765 41.6885 7.60765C41.9803 7.60765 42.1991 7.55895 42.3288 7.46154C42.4585 7.36413 42.5315 7.17742 42.5315 6.89331V6.6579H44.0635C44.0635 7.59954 43.9176 8.2327 43.6176 8.57364C43.3177 8.91457 42.6855 9.07692 41.7209 9.07692C40.5374 9.07692 39.7593 8.93081 39.3945 8.63046C39.0297 8.33011 38.8514 7.86741 38.8514 7.24236V4.96946L37.8382 4.96946V3.66254L38.8514 3.66254V2.36374L40.8698 2.36374V3.66254L44.0716 3.66254V4.96946H40.8698L40.8617 4.95323ZM49.6808 9.0688L47.7841 9.00386C46.8762 9.00386 46.2602 8.77657 45.9278 8.31388C45.5955 7.85118 45.4334 7.12872 45.4334 6.15462C45.4334 5.26169 45.6036 4.60417 45.9521 4.1983C46.3007 3.78431 46.9086 3.58137 47.7678 3.58137L49.6322 3.5489C50.1915 3.5489 50.6535 3.58137 51.0264 3.63819C51.3993 3.70313 51.7154 3.84113 51.9829 4.0603C52.2504 4.27947 52.4206 4.55547 52.5098 4.88017C52.5989 5.20487 52.6395 5.57828 52.6395 5.99227C52.6395 6.08156 52.6395 6.18709 52.6395 6.30073C52.6395 6.41438 52.6395 6.54426 52.6395 6.69037H47.4436C47.4436 7.10437 47.5166 7.40472 47.6706 7.57518C47.8246 7.74565 48.1002 7.82683 48.5136 7.82683L49.6322 7.85118C49.8835 7.85118 50.0942 7.83494 50.2563 7.80247C50.4266 7.77 50.5319 7.7213 50.5968 7.64012C50.6535 7.56707 50.686 7.42907 50.7022 7.23425H52.6395C52.6395 8.02976 52.3801 8.54117 51.8694 8.76034C51.3587 8.97951 50.6292 9.09316 49.6889 9.09316L49.6808 9.0688ZM48.7487 4.71782C48.3353 4.71782 48.011 4.75841 47.776 4.8477C47.5409 4.93699 47.4274 5.15617 47.4274 5.4971V5.64322H50.6941C50.6941 5.25358 50.5968 5.00193 50.4104 4.88829C50.2239 4.77464 49.9159 4.7097 49.4944 4.7097L48.7568 4.7097L48.7487 4.71782ZM47.8327 3.02938L47.549 2.26633L50.0942 1.01623L50.5401 2.26633L47.8408 3.02938H47.8327ZM56.0845 4.50676C56.1574 4.3363 56.2466 4.18206 56.3439 4.05218C56.4411 3.9223 56.587 3.81678 56.7897 3.74372C56.9842 3.67066 57.2193 3.61384 57.4949 3.58137C57.7705 3.5489 58.0947 3.53266 58.4676 3.53266C59.6186 3.53266 60.4454 3.66254 60.9561 3.9223C61.4586 4.18206 61.718 4.83146 61.718 5.86239V6.51179C61.718 6.94202 61.6937 7.30731 61.637 7.59954C61.5802 7.89177 61.4343 8.17588 61.1993 8.43564C60.9642 8.6954 60.6156 8.86587 60.1536 8.94704C59.6916 9.02822 59.1404 9.0688 58.4919 9.0688C57.8921 9.0688 57.3895 9.00387 56.9842 8.8821C56.5789 8.76034 56.279 8.48434 56.0845 8.05412V11.3011H54.1228V3.65443H56.0845V4.50676ZM58.1596 7.60765C58.8242 7.60765 59.2539 7.52648 59.4484 7.36413C59.6429 7.20178 59.7483 6.81214 59.7483 6.18709C59.7483 5.75686 59.6754 5.45651 59.5295 5.28605C59.3836 5.11558 59.0917 5.0344 58.6378 5.0344L57.3328 5.01005C57.0491 5.01005 56.8383 5.02628 56.7086 5.05875C56.5708 5.09122 56.4492 5.13993 56.352 5.22111C56.2466 5.29416 56.1817 5.40781 56.1412 5.56204C56.1007 5.71627 56.0845 5.89486 56.0845 6.0978V6.30073C56.0845 6.76343 56.1574 7.09625 56.3033 7.29107C56.4492 7.49401 56.741 7.59142 57.1788 7.59142L58.1596 7.61577V7.60765ZM67.3192 9.07692L65.4224 9.01198C64.5146 9.01198 63.8985 8.78469 63.5662 8.32199C63.2338 7.8593 63.0717 7.13684 63.0717 6.16274C63.0717 5.26981 63.2419 4.61229 63.5905 4.20642C63.939 3.79242 64.547 3.58949 65.4062 3.58949L67.2706 3.55702C67.8299 3.55702 68.2919 3.58949 68.6648 3.64631C69.0376 3.71125 69.3538 3.84925 69.6213 4.06842C69.8887 4.28759 70.059 4.56359 70.1481 4.88829C70.2373 5.21299 70.2778 5.58639 70.2778 6.00039C70.2778 6.08968 70.2778 6.19521 70.2778 6.30885C70.2778 6.4225 70.2778 6.55238 70.2778 6.69849L65.082 6.69849C65.082 7.11248 65.1549 7.41283 65.3089 7.5833C65.4629 7.75377 65.7385 7.83494 66.1519 7.83494L67.2706 7.8593C67.5218 7.8593 67.7326 7.84306 67.8947 7.81059C68.0649 7.77812 68.1703 7.72942 68.2352 7.64824C68.2919 7.57518 68.3243 7.43719 68.3405 7.24236L70.2778 7.24236C70.2778 8.03788 70.0184 8.54928 69.5078 8.76846C68.9971 8.98763 68.2676 9.10127 67.3273 9.10127L67.3192 9.07692ZM66.387 4.72594C65.9736 4.72594 65.6494 4.76652 65.4143 4.85582C65.1792 4.94511 65.0658 5.16428 65.0658 5.50522V5.65133H68.3324C68.3324 5.26169 68.2352 5.01005 68.0487 4.8964C67.8623 4.78276 67.5543 4.71782 67.1328 4.71782L66.3951 4.71782L66.387 4.72594ZM74.501 4.96134V6.6579C74.501 7.00696 74.5577 7.25048 74.6631 7.3966C74.7766 7.54271 74.9954 7.61577 75.3278 7.61577C75.6196 7.61577 75.8385 7.56707 75.9681 7.46966C76.0978 7.37225 76.1708 7.18554 76.1708 6.90143V6.66602H77.7028C77.7028 7.60765 77.5569 8.24082 77.257 8.58175C76.9571 8.92269 76.3248 9.08504 75.3602 9.08504C74.1686 9.08504 73.3986 8.93892 73.0338 8.63858C72.6691 8.33823 72.4907 7.87553 72.4907 7.25048V4.97758H71.4775V3.67066H72.4907V2.37186H74.5091V3.67066H77.7109V4.97758H74.5091L74.501 4.96134ZM79.2267 8.96328V1.38152L81.1883 1.38152V8.96328H79.2267ZM88.9618 7.42907L90.121 7.45342L91.4179 7.45342C91.8394 7.4453 92.1393 7.37225 92.3096 7.21801C92.4798 7.0719 92.5689 6.80402 92.5689 6.43061V5.45651C92.3987 5.72439 92.1637 5.89486 91.88 5.97603C91.5962 6.05721 91.2477 6.0978 90.8424 6.0978L89.0267 6.12215C87.9243 6.12215 87.1299 5.97603 86.6436 5.67569C86.1572 5.37534 85.914 4.7097 85.914 3.67878C85.914 2.77773 86.1329 2.17704 86.5787 1.86857C87.0245 1.56011 87.7135 1.40588 88.6619 1.40588L91.2072 1.37341C91.6206 1.37341 91.9367 1.37341 92.1393 1.38964C92.342 1.39776 92.6419 1.43835 93.0391 1.5114C93.4363 1.57634 93.7686 1.71434 94.0523 1.9254C94.336 2.13645 94.5225 2.42056 94.6035 2.77773C94.6846 3.14302 94.7413 3.46772 94.7575 3.75995C94.7738 4.05218 94.79 4.40124 94.79 4.80711V5.38346C94.79 6.78778 94.6116 7.74565 94.255 8.24082C93.8983 8.73599 93.0391 8.98763 91.6773 8.98763L90.1372 9.0201L87.8594 8.93892C87.1542 8.8821 86.6355 8.72787 86.3031 8.47623C85.9708 8.2327 85.8006 7.77812 85.8006 7.12872V6.83649H87.9486C87.9486 7.08813 88.0459 7.25048 88.2404 7.32354C88.435 7.3966 88.6862 7.43719 88.9862 7.43719L88.9618 7.42907ZM90.3804 4.56359H91.4098C91.7827 4.55547 92.0745 4.50676 92.2934 4.41747C92.5122 4.32818 92.6257 4.12524 92.6257 3.80866C92.6257 3.49208 92.5608 3.28914 92.423 3.15926C92.2934 3.02938 92.0664 2.96444 91.7584 2.96444L91.2477 2.94008L90.0805 2.91573L89.1969 2.91573C88.743 2.92385 88.435 2.99691 88.281 3.12679C88.1269 3.25667 88.0459 3.45149 88.0459 3.69501C88.0459 4.09277 88.1513 4.3363 88.3539 4.42559C88.5647 4.51488 88.9051 4.55547 89.3833 4.55547H90.3723L90.3804 4.56359ZM96.7192 10.9927H96.5489C96.3787 10.9927 96.2085 10.9845 96.0464 10.9602V9.77503L96.2814 9.79938C96.5489 9.79938 96.7354 9.72632 96.8407 9.58833C96.9461 9.45033 97.0029 9.23927 97.0029 8.97139H96.3706V6.86084L98.6483 6.86084V8.97139C98.6483 9.71009 98.5106 10.2296 98.235 10.53C97.9594 10.8303 97.4568 10.9927 96.7192 10.9927ZM112.955 1.38152V8.96328H110.637V6.04097H105.417V8.96328L103.115 8.96328V1.38152L105.417 1.38152V4.15771L110.637 4.15771V1.38152L112.955 1.38152ZM114.755 2.8102V1.38152L116.716 1.38152V2.8102H114.755ZM114.755 8.95516V3.65443H116.716V8.96328H114.755V8.95516ZM120.315 4.49865C120.388 4.32818 120.477 4.17395 120.575 4.04407C120.672 3.91419 120.818 3.80866 121.021 3.7356C121.215 3.66254 121.45 3.60572 121.726 3.57325C122.001 3.54078 122.326 3.52455 122.698 3.52455C123.849 3.52455 124.676 3.65443 125.187 3.91419C125.69 4.17395 125.949 4.82335 125.949 5.85427V6.50367C125.949 6.9339 125.925 7.29919 125.868 7.59142C125.811 7.88365 125.665 8.16776 125.43 8.42752C125.195 8.68728 124.846 8.85775 124.384 8.93892C123.931 9.0201 123.371 9.06069 122.723 9.06069C122.123 9.06069 121.62 8.99575 121.223 8.87398C120.818 8.75222 120.518 8.47623 120.323 8.046V11.293H118.362V3.65443H120.323V4.50676L120.315 4.49865ZM122.39 7.59954C123.055 7.59954 123.485 7.51836 123.679 7.35601C123.874 7.19366 123.979 6.80402 123.979 6.17897C123.979 5.74874 123.906 5.4484 123.76 5.27793C123.614 5.10746 123.323 5.02628 122.869 5.02628L121.564 5.00193C121.28 5.00193 121.069 5.01817 120.931 5.05064C120.794 5.08311 120.672 5.13181 120.575 5.21299C120.469 5.28605 120.404 5.39969 120.364 5.55392C120.323 5.70816 120.307 5.88674 120.307 6.08968V6.29262C120.307 6.75531 120.38 7.08813 120.526 7.28295C120.672 7.48589 120.964 7.5833 121.402 7.5833L122.382 7.60765L122.39 7.59954ZM130.975 3.54078L133.025 3.62196C133.739 3.70313 134.233 3.9223 134.509 4.27947C134.784 4.62853 134.922 5.18052 134.922 5.91921V6.1465C134.922 7.22613 134.8 7.94859 134.557 8.31388C134.314 8.68728 133.658 8.92269 132.579 9.0201L130.423 9.0688C129.272 9.0688 128.47 8.92269 128.016 8.62234C127.562 8.33011 127.327 7.64012 127.327 6.56861V6.25203C127.327 5.57828 127.384 5.05064 127.505 4.661C127.627 4.27136 127.894 4.00348 128.308 3.84925C128.721 3.69501 129.199 3.60572 129.734 3.58137C130.277 3.55702 130.683 3.5489 130.966 3.5489L130.975 3.54078ZM131.007 7.60765H131.226C131.591 7.60765 131.882 7.59954 132.101 7.57518C132.328 7.55083 132.498 7.49401 132.612 7.41283C132.725 7.32354 132.815 7.21801 132.863 7.08001C132.912 6.95013 132.936 6.7472 132.936 6.4712V6.07344C132.936 5.82992 132.912 5.65133 132.871 5.53769C132.823 5.42404 132.742 5.31851 132.612 5.22922C132.482 5.13993 132.28 5.07499 132.012 5.05064C131.736 5.01817 131.428 5.00193 131.08 5.00193C130.731 5.00193 130.44 5.01817 130.196 5.05064C129.953 5.08311 129.759 5.16428 129.613 5.28605C129.467 5.40781 129.378 5.57828 129.353 5.80557C129.329 6.03286 129.321 6.20332 129.321 6.3332C129.321 6.56049 129.337 6.77155 129.378 6.96637C129.418 7.16119 129.499 7.30731 129.629 7.40472C129.759 7.50213 129.986 7.56707 130.318 7.5833C130.65 7.60765 130.877 7.61577 131.015 7.61577L131.007 7.60765ZM129.921 3.02126L129.637 2.25821L132.182 1.00812L132.628 2.25821L129.929 3.02126H129.921ZM141.974 8.94704V7.80247C141.844 8.30576 141.569 8.63858 141.147 8.80904C140.726 8.97951 140.215 9.06069 139.599 9.06069C138.983 9.06069 138.408 9.02822 137.929 8.95516C137.451 8.8821 137.086 8.72787 136.843 8.49246C136.592 8.25705 136.438 7.98106 136.373 7.66448C136.308 7.34789 136.276 6.97449 136.276 6.55238V6.16274C136.276 5.65133 136.308 5.22922 136.381 4.88017C136.454 4.53923 136.632 4.25512 136.924 4.05218C137.208 3.84113 137.581 3.70313 138.035 3.63007C138.489 3.55702 138.959 3.52455 139.461 3.52455C140.248 3.52455 140.807 3.60572 141.139 3.75995C141.472 3.91419 141.755 4.15771 141.982 4.49053V1.38152L143.903 1.38152V8.96328H141.982L141.974 8.94704ZM140.345 7.59142C140.969 7.59142 141.391 7.52648 141.626 7.38848C141.861 7.25048 141.974 6.90955 141.974 6.35756C141.974 5.75686 141.877 5.38346 141.674 5.22922C141.48 5.07499 141.05 4.99381 140.385 4.99381H139.956C139.664 4.99381 139.405 5.01005 139.178 5.04252C138.943 5.07499 138.764 5.13993 138.626 5.23734C138.489 5.33475 138.399 5.46463 138.367 5.62698C138.327 5.78933 138.31 5.98415 138.31 6.22768C138.31 6.80402 138.399 7.17742 138.57 7.35601C138.74 7.52648 139.121 7.61577 139.696 7.61577H140.345V7.59142ZM147.462 4.68535C147.608 4.23077 147.851 3.9223 148.208 3.75995C148.556 3.5976 149.002 3.51643 149.537 3.51643C150.356 3.51643 150.915 3.66254 151.231 3.94666C151.539 4.23889 151.693 4.78276 151.693 5.58639V5.92733H149.869C149.869 5.92733 149.861 5.86239 149.861 5.80557C149.829 5.4484 149.74 5.22111 149.586 5.13181C149.432 5.0344 149.148 4.99381 148.726 4.99381C148.248 4.99381 147.924 5.12369 147.737 5.37534C147.559 5.62698 147.462 6.01662 147.462 6.52802V8.94704H145.5V3.65443L147.462 3.65443V4.7097V4.68535ZM156.605 3.52455L158.656 3.60572C159.369 3.6869 159.864 3.90607 160.139 4.26324C160.415 4.61229 160.553 5.16428 160.553 5.90298V6.13027C160.553 7.2099 160.431 7.93235 160.188 8.29764C159.945 8.67105 159.288 8.90645 158.21 9.00386L156.054 9.05257C154.903 9.05257 154.101 8.90645 153.647 8.60611C153.193 8.31388 152.958 7.62389 152.958 6.55238V6.23579C152.958 5.56204 153.014 5.0344 153.136 4.64476C153.258 4.25512 153.525 3.98724 153.938 3.83301C154.352 3.67878 154.83 3.58949 155.365 3.56513C155.908 3.54078 156.313 3.53266 156.597 3.53266L156.605 3.52455ZM156.638 7.59142H156.857C157.221 7.59142 157.513 7.5833 157.732 7.55895C157.959 7.5346 158.129 7.47777 158.243 7.3966C158.356 7.3073 158.445 7.20178 158.494 7.06378C158.543 6.9339 158.567 6.73096 158.567 6.45497V6.05721C158.567 5.81368 158.543 5.6351 158.502 5.52145C158.453 5.40781 158.372 5.30228 158.243 5.21299C158.113 5.12369 157.91 5.05875 157.643 5.0344C157.367 5.00193 157.059 4.9857 156.711 4.9857C156.362 4.9857 156.07 5.00193 155.827 5.0344C155.584 5.06687 155.389 5.14805 155.243 5.26981C155.098 5.39157 155.008 5.56204 154.984 5.78933C154.96 6.01662 154.952 6.18709 154.952 6.31697C154.952 6.54426 154.968 6.75531 155.008 6.95013C155.049 7.14496 155.13 7.29107 155.26 7.38848C155.389 7.48589 155.616 7.55083 155.949 7.56707C156.281 7.59142 156.508 7.59954 156.646 7.59954L156.638 7.59142ZM163.982 4.61229C164.176 4.18206 164.452 3.88983 164.808 3.7356C165.165 3.58137 165.611 3.50831 166.146 3.50831C166.738 3.50831 167.248 3.58949 167.686 3.75995C168.124 3.93042 168.448 4.23889 168.659 4.69347C168.796 4.23077 169.064 3.9223 169.469 3.75184C169.875 3.58949 170.369 3.50831 170.953 3.50831C171.852 3.50831 172.558 3.6869 173.068 4.05218C173.579 4.41747 173.838 5.02628 173.838 5.89486V8.93081H171.877V6.12215C171.877 5.70004 171.796 5.40781 171.625 5.26169C171.455 5.10746 171.115 5.0344 170.604 5.0344L170.401 5.0344C170.069 5.0344 169.785 5.06687 169.558 5.13993C169.331 5.20487 169.169 5.31852 169.096 5.47275C169.015 5.62698 168.967 5.76498 168.95 5.89486C168.934 6.02474 168.918 6.16274 168.918 6.30073V8.93892H166.956V6.16274C166.956 5.72439 166.867 5.42404 166.689 5.26981C166.511 5.11558 166.186 5.0344 165.716 5.0344H165.546C165.035 5.0344 164.646 5.10746 164.387 5.25358C164.128 5.39969 163.998 5.70004 163.998 6.16274V8.93892L162.036 8.93892V3.65443H163.998V4.64476L163.982 4.61229ZM178.969 3.52455L181.02 3.60572C181.733 3.6869 182.228 3.90607 182.503 4.26324C182.779 4.61229 182.917 5.16428 182.917 5.90298V6.13027C182.917 7.2099 182.795 7.93235 182.552 8.29764C182.309 8.67105 181.652 8.90645 180.574 9.00386L178.418 9.05257C177.267 9.05257 176.465 8.90645 176.003 8.60611C175.549 8.31388 175.314 7.62389 175.314 6.55238V6.23579C175.314 5.56204 175.37 5.0344 175.492 4.64476C175.614 4.25512 175.881 3.98724 176.294 3.83301C176.708 3.67878 177.186 3.58949 177.721 3.56513C178.264 3.54078 178.669 3.53266 178.953 3.53266L178.969 3.52455ZM179.002 7.59142H179.221C179.585 7.59142 179.877 7.5833 180.096 7.55895C180.323 7.5346 180.493 7.47777 180.607 7.3966C180.728 7.3073 180.809 7.20178 180.858 7.06378C180.907 6.9339 180.931 6.73096 180.931 6.45497V6.05721C180.931 5.81368 180.907 5.6351 180.866 5.52145C180.817 5.40781 180.736 5.30228 180.607 5.21299C180.477 5.12369 180.274 5.05875 180.007 5.0344C179.731 5.00193 179.423 4.9857 179.075 4.9857C178.726 4.9857 178.434 5.00193 178.191 5.0344C177.948 5.06687 177.753 5.14805 177.608 5.26981C177.462 5.39157 177.372 5.56204 177.356 5.78933C177.332 6.01662 177.324 6.18709 177.324 6.31697C177.324 6.54426 177.34 6.75531 177.381 6.95013C177.421 7.14496 177.502 7.29107 177.632 7.38848C177.762 7.48589 177.989 7.55083 178.321 7.56707C178.653 7.59142 178.88 7.59954 179.018 7.59954L179.002 7.59142ZM184.692 10.9521H184.522C184.352 10.9521 184.181 10.9439 184.019 10.9196V9.73444L184.254 9.75879C184.522 9.75879 184.708 9.68574 184.814 9.54774C184.919 9.40974 184.976 9.19868 184.976 8.93081L184.344 8.93081V6.82025L186.621 6.82025V8.93081C186.621 9.6695 186.483 10.189 186.208 10.4894C185.932 10.7978 185.43 10.9521 184.692 10.9521ZM200.661 6.37379C200.661 7.42095 200.466 8.11094 200.085 8.45999C199.704 8.80093 198.95 8.97951 197.824 8.97951L196.065 9.01198L194.638 8.98763C193.114 8.98763 192.141 8.78469 191.704 8.38693C191.266 7.98918 191.055 7.37225 191.055 6.52802L190.99 4.93699C190.99 3.69501 191.169 2.78585 191.533 2.20139C191.898 1.62505 192.636 1.33282 193.754 1.33282L195.911 1.276C196.535 1.276 197.054 1.276 197.467 1.29223C197.872 1.30035 198.375 1.34094 198.95 1.39776C199.534 1.45458 199.947 1.71434 200.199 2.1608C200.45 2.61538 200.571 3.2242 200.571 4.0116H198.334C198.334 3.67066 198.245 3.43525 198.075 3.32161C197.905 3.20796 197.637 3.15114 197.264 3.15114H196.616L195.984 3.14302H194.816C194.119 3.15114 193.698 3.28102 193.536 3.54078C193.382 3.80054 193.301 4.32818 193.301 5.13181C193.301 5.93545 193.39 6.49555 193.576 6.7472C193.754 6.99884 194.241 7.1206 195.027 7.1206L195.927 7.14495H197.11C197.572 7.13684 197.905 7.0719 198.099 6.94202C198.294 6.81214 198.391 6.51179 198.391 6.04097L200.653 6.04097V6.37379H200.661ZM207.543 8.93081V7.84306C207.421 8.32199 207.137 8.63858 206.699 8.80093C206.254 8.96328 205.735 9.04445 205.127 9.04445C204.146 9.04445 203.417 8.87398 202.946 8.52493C202.476 8.184 202.241 7.5346 202.241 6.57673V3.62196H204.203V6.39814C204.203 6.90143 204.324 7.22613 204.576 7.37225C204.827 7.51024 205.232 7.5833 205.792 7.5833C206.408 7.5833 206.845 7.48589 207.129 7.28295C207.405 7.08001 207.543 6.69037 207.543 6.12215V3.63007L209.504 3.63007V8.93892H207.543V8.93081ZM213.525 3.55702L215.575 3.50831C216.394 3.50831 217.026 3.63007 217.464 3.8736C217.91 4.11712 218.129 4.61229 218.129 5.35099V8.93081H216.167V8.07035C216.013 8.49246 215.738 8.76034 215.34 8.87398C214.943 8.98763 214.432 9.04445 213.8 9.04445H213.435C212.584 9.04445 211.96 8.93892 211.563 8.72787C211.166 8.51681 210.963 8.02165 210.963 7.25048C210.963 6.69037 211.117 6.26826 211.425 5.98415C211.733 5.70004 212.163 5.55392 212.73 5.55392C213.022 5.52957 213.322 5.52145 213.63 5.52145L214.514 5.52145C214.919 5.52145 215.243 5.55392 215.511 5.62698C215.77 5.69192 215.989 5.85427 216.167 6.08968V5.51334C216.167 5.19675 216.102 4.97758 215.964 4.87205C215.827 4.75841 215.6 4.7097 215.275 4.7097L214.368 4.68535L213.719 4.7097C213.533 4.7097 213.387 4.73405 213.298 4.79088C213.209 4.8477 213.16 4.96134 213.16 5.13181H211.198C211.198 4.523 211.417 4.11712 211.847 3.88983C212.284 3.67066 212.836 3.55702 213.525 3.55702ZM214.262 7.79436H214.432C214.862 7.79436 215.219 7.77 215.494 7.72942C215.77 7.68883 215.948 7.62389 216.037 7.54271C216.118 7.46154 216.167 7.33166 216.167 7.15307C216.167 6.94202 216.078 6.7959 215.908 6.72284C215.738 6.64979 215.527 6.61732 215.284 6.61732L214.157 6.59296C213.808 6.59296 213.508 6.62543 213.265 6.69037C213.022 6.75531 212.9 6.91767 212.9 7.16931C212.9 7.42095 212.998 7.5833 213.184 7.66448C213.371 7.74565 213.622 7.78624 213.922 7.78624L214.254 7.78624L214.262 7.79436ZM225.019 8.93081V7.84306C224.897 8.32199 224.613 8.63858 224.176 8.80093C223.73 8.96328 223.211 9.04445 222.603 9.04445C221.622 9.04445 220.893 8.87398 220.423 8.52493C219.953 8.184 219.718 7.5346 219.718 6.57673V3.62196H221.679V6.39814C221.679 6.90143 221.801 7.22613 222.052 7.37225C222.303 7.51024 222.709 7.5833 223.268 7.5833C223.884 7.5833 224.322 7.48589 224.605 7.28295C224.881 7.08001 225.019 6.69037 225.019 6.12215V3.63007L226.98 3.63007V8.93892H225.019V8.93081ZM232.817 3.50831C233.83 3.50831 234.584 3.67878 235.086 4.0116C235.589 4.34441 235.832 4.99381 235.832 5.96792V8.93081H233.87V6.2845C233.87 5.75686 233.797 5.39969 233.66 5.23734C233.522 5.06687 233.108 4.97758 232.419 4.97758H232.298C231.674 4.97758 231.236 5.05875 230.977 5.22922C230.717 5.39969 230.587 5.75686 230.587 6.30885V8.93081H228.626V1.38152L230.587 1.38152V4.56359C230.782 4.12524 231.058 3.84113 231.414 3.71937C231.763 3.5976 232.233 3.54078 232.825 3.54078L232.817 3.50831ZM240.136 4.92887V6.62543C240.136 6.97449 240.193 7.21801 240.298 7.36413C240.404 7.51024 240.631 7.5833 240.963 7.5833C241.255 7.5833 241.474 7.5346 241.603 7.43719C241.733 7.33978 241.806 7.15307 241.806 6.86896V6.63355L243.338 6.63355C243.338 7.57518 243.192 8.20835 242.892 8.54928C242.592 8.89022 241.96 9.05257 240.995 9.05257C239.812 9.05257 239.034 8.90645 238.669 8.60611C238.304 8.30576 238.126 7.84306 238.126 7.21801V4.94511L237.113 4.94511V3.63819L238.126 3.63819V2.33939H240.144V3.63819L243.346 3.63819V4.94511L240.144 4.94511L240.136 4.92887ZM248.955 9.04445L247.059 8.97951C246.151 8.97951 245.535 8.75222 245.202 8.28952C244.87 7.82683 244.708 7.10437 244.708 6.13027C244.708 5.23734 244.878 4.57982 245.227 4.17395C245.575 3.75995 246.183 3.55702 247.042 3.55702L248.907 3.52455C249.466 3.52455 249.928 3.55702 250.301 3.61384C250.674 3.67878 250.99 3.81678 251.257 4.03595C251.525 4.25512 251.695 4.53112 251.784 4.85582C251.873 5.18052 251.914 5.55392 251.914 5.96792C251.914 6.05721 251.914 6.16274 251.914 6.27638C251.914 6.39003 251.914 6.51991 251.914 6.66602L246.718 6.66602C246.718 7.08001 246.791 7.38036 246.945 7.55083C247.099 7.7213 247.375 7.80247 247.788 7.80247L248.907 7.82683C249.158 7.82683 249.369 7.81059 249.531 7.77812C249.701 7.74565 249.806 7.69695 249.863 7.61577C249.92 7.54271 249.96 7.40472 249.969 7.2099L251.906 7.2099C251.906 8.00541 251.655 8.51681 251.144 8.73599C250.633 8.95516 249.904 9.0688 248.955 9.0688V9.04445ZM248.023 4.69347C247.61 4.69347 247.277 4.73405 247.05 4.82335C246.815 4.91264 246.702 5.13181 246.702 5.47275V5.61886H249.969C249.969 5.22922 249.871 4.97758 249.685 4.86393C249.498 4.75029 249.19 4.68535 248.769 4.68535H248.031L248.023 4.69347ZM247.107 3.00502L246.824 2.24198L249.369 0.991882L249.815 2.24198L247.115 3.00502H247.107ZM255.359 4.61229C255.554 4.18206 255.829 3.88983 256.186 3.7356C256.542 3.58137 256.988 3.50831 257.523 3.50831C258.115 3.50831 258.626 3.58949 259.063 3.75995C259.501 3.93042 259.825 4.23889 260.036 4.69347C260.174 4.23077 260.441 3.9223 260.847 3.75184C261.252 3.58949 261.746 3.50831 262.33 3.50831C263.23 3.50831 263.935 3.6869 264.446 4.05218C264.956 4.41747 265.216 5.02628 265.216 5.89486V8.93081H263.254V6.12215C263.254 5.70004 263.173 5.40781 263.003 5.26169C262.833 5.10746 262.5 5.0344 261.982 5.0344H261.779C261.447 5.0344 261.163 5.06687 260.936 5.13993C260.701 5.20487 260.547 5.31852 260.474 5.47275C260.393 5.62698 260.344 5.76498 260.328 5.89486C260.312 6.02474 260.295 6.16274 260.295 6.30073V8.93892H258.334V6.16274C258.334 5.72439 258.245 5.42404 258.066 5.26981C257.888 5.11558 257.564 5.0344 257.094 5.0344H256.923C256.413 5.0344 256.024 5.10746 255.756 5.25358C255.497 5.39969 255.367 5.70004 255.367 6.16274V8.93892H253.405V3.65443H255.367V4.64476L255.359 4.61229ZM270.347 3.52455L272.398 3.60572C273.111 3.6869 273.605 3.90607 273.881 4.26324C274.156 4.61229 274.294 5.16428 274.294 5.90298V6.13027C274.294 7.2099 274.173 7.93235 273.93 8.29764C273.686 8.67105 273.03 8.90645 271.952 9.00386L269.796 9.05257C268.645 9.05257 267.842 8.90645 267.388 8.60611C266.934 8.31388 266.699 7.62389 266.699 6.55238V6.23579C266.699 5.56204 266.756 5.0344 266.877 4.64476C266.999 4.25512 267.267 3.98724 267.68 3.83301C268.093 3.67878 268.572 3.58949 269.107 3.56513C269.65 3.54078 270.055 3.53266 270.339 3.53266L270.347 3.52455ZM270.379 7.59142H270.598C270.963 7.59142 271.255 7.5833 271.473 7.55895C271.7 7.5346 271.871 7.47777 271.984 7.3966C272.098 7.3073 272.187 7.20178 272.235 7.06378C272.284 6.9339 272.308 6.73096 272.308 6.45497V6.05721C272.308 5.81368 272.284 5.6351 272.243 5.52145C272.195 5.40781 272.114 5.30228 271.984 5.21299C271.854 5.12369 271.652 5.05875 271.384 5.0344C271.109 5.00193 270.801 4.9857 270.452 4.9857C270.104 4.9857 269.812 5.00193 269.569 5.0344C269.325 5.06687 269.131 5.14805 268.985 5.26981C268.839 5.39157 268.75 5.56204 268.726 5.78933C268.701 6.01662 268.693 6.18709 268.693 6.31697C268.693 6.54426 268.709 6.75531 268.75 6.95013C268.79 7.14496 268.871 7.29107 269.001 7.38848C269.131 7.48589 269.358 7.55083 269.69 7.56707C270.022 7.59142 270.249 7.59954 270.387 7.59954L270.379 7.59142ZM282.384 8.47623C282.092 8.71975 281.671 8.87398 281.128 8.93892C280.584 9.00386 280.001 9.04445 279.36 9.04445C278.453 9.04445 277.747 8.98763 277.253 8.8821C276.75 8.77657 276.353 8.51681 276.061 8.11094C275.77 7.70506 275.616 7.0719 275.616 6.21144C275.616 5.35099 275.778 4.70158 276.11 4.30383C276.442 3.90607 277.026 3.66254 277.861 3.58949L279.725 3.50831C280.844 3.50831 281.663 3.63007 282.173 3.8736C282.684 4.11712 282.943 4.72594 282.943 5.70004H280.982C280.957 5.56204 280.933 5.45651 280.901 5.37534C280.868 5.29416 280.811 5.22111 280.722 5.15617C280.633 5.09123 280.479 5.04252 280.276 5.01817C280.066 4.99381 279.847 4.97758 279.612 4.97758H279.296C278.979 4.97758 278.704 4.99381 278.485 5.02628C278.258 5.05875 278.088 5.12369 277.958 5.22111C277.828 5.31852 277.739 5.4484 277.691 5.59451C277.642 5.74874 277.618 5.96792 277.618 6.26826C277.618 6.86084 277.747 7.22613 278.015 7.37225C278.282 7.51836 278.744 7.59142 279.409 7.59142C279.839 7.59142 280.171 7.56707 280.39 7.52648C280.617 7.47777 280.763 7.41283 280.836 7.32354C280.909 7.23425 280.957 7.15307 280.974 7.08001C280.99 7.00696 281.006 6.90143 281.006 6.77155H283C283 7.17742 282.959 7.51836 282.887 7.77812C282.814 8.03788 282.643 8.27329 282.384 8.49246V8.47623ZM91.1504 14.3127H92.034C92.4555 14.3046 92.7635 14.3127 92.9418 14.3127C93.1202 14.3208 93.4201 14.3614 93.8416 14.4182C94.255 14.4751 94.6278 14.6049 94.944 14.7998C95.2601 14.9946 95.4709 15.2625 95.5762 15.6034C95.6816 15.9443 95.7546 16.2934 95.7951 16.6424C95.8356 16.9915 95.8599 17.4785 95.8599 18.1036C95.8599 19.2076 95.8032 20.0031 95.6897 20.4901C95.5762 20.9772 95.2844 21.3344 94.8143 21.5779C94.3441 21.8214 93.5741 21.9432 92.5122 21.9432L90.1291 21.9675C88.6133 21.9675 87.6163 21.7646 87.138 21.3587C86.6598 20.9528 86.4166 20.0112 86.4166 18.5338V18.1117C86.4166 16.61 86.6111 15.6034 87.0002 15.1001C87.3893 14.5968 88.2891 14.3452 89.6995 14.3452L91.1504 14.3208V14.3127ZM91.1747 20.1005H91.7989C92.5365 20.1005 93.0229 20.0031 93.2661 19.8002C93.5092 19.5972 93.6308 19.0939 93.6308 18.2903V17.8276C93.6308 17.5029 93.6065 17.2107 93.566 16.959C93.5173 16.7074 93.4201 16.5207 93.2579 16.3989C93.0958 16.2772 92.9175 16.2041 92.7311 16.1716C92.5446 16.1392 92.3339 16.1229 92.0988 16.1148C91.8718 16.1148 91.734 16.1067 91.7097 16.1067H90.6398C89.74 16.1067 89.1807 16.2122 88.9699 16.4314C88.7511 16.6506 88.6457 17.1701 88.6457 17.9899V18.1361C88.6457 18.9316 88.7268 19.4511 88.897 19.7027C89.0672 19.9544 89.5293 20.0843 90.275 20.0843L91.1747 20.1086V20.1005ZM103.066 15.8875H102.393L101.072 15.8956C100.74 15.8956 100.488 15.9119 100.318 15.9362C100.148 15.9606 100.018 16.0417 99.9129 16.1716C99.8075 16.3015 99.7426 16.4314 99.7183 16.5775C99.694 16.7155 99.6778 16.8779 99.6778 17.0564V17.9981C99.848 17.6328 100.116 17.4055 100.464 17.3081C100.813 17.2107 101.283 17.1701 101.858 17.1701H103.439C103.909 17.162 104.322 17.1782 104.679 17.2269C105.036 17.2756 105.368 17.3649 105.668 17.4948C105.968 17.6328 106.171 17.8682 106.268 18.201C106.365 18.5338 106.414 18.9235 106.414 19.3537C106.414 20.409 106.203 21.1071 105.79 21.4318C105.376 21.7646 104.598 21.9269 103.463 21.9269L101.104 21.9594C100.278 21.9594 99.6616 21.9107 99.2563 21.8133C98.851 21.7159 98.4943 21.5535 98.2025 21.3344C97.9107 21.1071 97.7243 20.8067 97.6432 20.4171C97.5703 20.0274 97.5297 19.516 97.5297 18.891V17.2594C97.5216 17.1051 97.5216 16.959 97.5216 16.8129C97.5216 16.6668 97.546 16.3827 97.6027 15.9525C97.6594 15.5222 97.9188 15.1488 98.3971 14.8485C98.8753 14.5481 99.4751 14.3858 100.213 14.3858C100.513 14.3533 100.805 14.3371 101.072 14.329C101.348 14.329 101.664 14.3208 102.028 14.3208C102.685 14.3208 103.204 14.3208 103.577 14.3371C103.95 14.3452 104.395 14.3858 104.906 14.4507C105.417 14.5157 105.773 14.7105 105.968 15.0514C106.162 15.3842 106.26 15.8632 106.26 16.4801H104.168C104.128 16.2366 104.006 16.0823 103.804 16.0012C103.601 15.9281 103.35 15.8875 103.05 15.8875H103.066ZM103.066 20.3846C103.479 20.3846 103.787 20.3278 103.982 20.2223C104.177 20.1167 104.274 19.8732 104.274 19.4917C104.274 19.2076 104.185 19.0046 104.014 18.891C103.844 18.7773 103.617 18.7205 103.325 18.7205H102.223L100.772 18.7449C100.407 18.7449 100.14 18.7936 99.9534 18.891C99.7751 18.9884 99.6778 19.1995 99.6778 19.5323C99.6778 19.9057 99.7832 20.1492 99.9858 20.2466C100.188 20.344 100.513 20.4009 100.95 20.4009L103.05 20.3765L103.066 20.3846ZM112.169 21.9188V16.1229L109.778 18.0062L108.4 16.4639L111.115 14.3371H114.43V21.9188H112.169ZM122.042 14.3127H122.925C123.347 14.3046 123.655 14.3127 123.833 14.3127C124.012 14.3208 124.312 14.3614 124.733 14.4182C125.146 14.4751 125.519 14.6049 125.835 14.7998C126.152 14.9946 126.362 15.2625 126.468 15.6034C126.573 15.9443 126.646 16.2934 126.687 16.6424C126.727 16.9915 126.751 17.4785 126.751 18.1036C126.751 19.2076 126.695 20.0031 126.581 20.4901C126.468 20.9772 126.176 21.3344 125.706 21.5779C125.236 21.8214 124.466 21.9432 123.404 21.9432L121.021 21.9675C119.505 21.9675 118.508 21.7646 118.029 21.3587C117.551 20.9528 117.308 20.0112 117.308 18.5338V18.1117C117.308 16.61 117.503 15.6034 117.892 15.1001C118.281 14.5968 119.181 14.3452 120.591 14.3452L122.042 14.3208V14.3127ZM122.066 20.1005H122.69C123.428 20.1005 123.914 20.0031 124.158 19.8002C124.401 19.5972 124.53 19.0939 124.53 18.2903V17.8276C124.53 17.5029 124.506 17.2107 124.466 16.959C124.417 16.7074 124.32 16.5207 124.158 16.3989C123.995 16.2772 123.817 16.2041 123.631 16.1716C123.444 16.1392 123.233 16.1229 122.998 16.1148C122.763 16.1148 122.634 16.1067 122.609 16.1067H121.539C120.64 16.1067 120.08 16.2122 119.861 16.4314C119.643 16.6506 119.537 17.1701 119.537 17.9899V18.1361C119.537 18.9316 119.626 19.4511 119.797 19.7027C119.967 19.9544 120.429 20.0843 121.175 20.0843L122.074 20.1086L122.066 20.1005ZM133.001 14.3127H133.885C134.306 14.3046 134.614 14.3127 134.792 14.3127C134.971 14.3208 135.271 14.3614 135.692 14.4182C136.106 14.4751 136.478 14.6049 136.795 14.7998C137.111 14.9946 137.321 15.2625 137.427 15.6034C137.532 15.9443 137.605 16.2934 137.646 16.6424C137.686 16.9915 137.71 17.4785 137.71 18.1036C137.71 19.2076 137.654 20.0031 137.54 20.4901C137.427 20.9772 137.135 21.3344 136.665 21.5779C136.195 21.8214 135.425 21.9432 134.363 21.9432L131.98 21.9675C130.464 21.9675 129.467 21.7646 128.989 21.3587C128.51 20.9528 128.267 20.0112 128.267 18.5338V18.1117C128.267 16.61 128.462 15.6034 128.851 15.1001C129.24 14.5968 130.14 14.3452 131.55 14.3452L133.001 14.3208V14.3127ZM133.025 20.1005H133.649C134.387 20.1005 134.873 20.0031 135.117 19.8002C135.36 19.5972 135.489 19.0939 135.489 18.2903V17.8276C135.489 17.5029 135.465 17.2107 135.425 16.959C135.376 16.7074 135.279 16.5207 135.117 16.3989C134.955 16.2772 134.776 16.2041 134.59 16.1716C134.403 16.1392 134.193 16.1229 133.957 16.1148C133.722 16.1148 133.593 16.1067 133.568 16.1067H132.498C131.599 16.1067 131.039 16.2122 130.821 16.4314C130.602 16.6506 130.496 17.1701 130.496 17.9899V18.1361C130.496 18.9316 130.585 19.4511 130.756 19.7027C130.926 19.9544 131.388 20.0843 132.134 20.0843L133.033 20.1086L133.025 20.1005ZM157.424 19.3618C157.424 20.409 157.229 21.099 156.848 21.448C156.467 21.7889 155.714 21.9675 154.587 21.9675L152.828 22L151.401 21.9756C149.877 21.9756 148.905 21.7727 148.467 21.375C148.029 20.9772 147.819 20.3603 147.819 19.516L147.754 17.925C147.754 16.683 147.932 15.7739 148.297 15.1894C148.662 14.6131 149.399 14.3208 150.518 14.3208L152.674 14.264C153.298 14.264 153.817 14.264 154.23 14.2802C154.636 14.2884 155.138 14.329 155.714 14.3858C156.297 14.4426 156.711 14.7024 156.962 15.1488C157.213 15.6034 157.335 16.2122 157.335 16.9996H155.098C155.098 16.6587 155.008 16.4233 154.838 16.3096C154.668 16.196 154.4 16.1392 154.028 16.1392H153.379L152.747 16.131L151.58 16.131C150.883 16.1392 150.461 16.269 150.299 16.5288C150.145 16.7886 150.064 17.3162 150.064 18.1198C150.064 18.9235 150.153 19.4836 150.339 19.7352C150.518 19.9869 151.004 20.1086 151.79 20.1086L152.69 20.133H153.874C154.336 20.1249 154.668 20.0599 154.863 19.93C155.057 19.8002 155.154 19.4998 155.154 19.029H157.416V19.3618H157.424ZM165.862 14.3371C167.232 14.3371 168.148 14.5644 168.618 15.0189C169.088 15.4735 169.323 16.3827 169.323 17.7464V18.6231C169.323 18.9803 169.323 19.2319 169.307 19.3699C169.299 19.516 169.25 19.8083 169.177 20.2466C169.105 20.6931 168.845 21.0746 168.391 21.4074C167.945 21.7402 167.386 21.9107 166.713 21.9107L159.191 21.9107V14.329H165.862V14.3371ZM166.997 18.1523V18.0874C166.997 17.3487 166.916 16.8454 166.746 16.5937C166.584 16.334 166.13 16.2122 165.408 16.2122H161.493V20.068H165.376C166.089 20.068 166.535 19.9382 166.721 19.6703C166.908 19.4024 166.997 18.8991 166.997 18.1604V18.1523ZM181.798 21.9188V16.1473L178.459 21.9188H176.611L173.311 16.1473V21.9188H171.147V14.3371H174.657L177.543 19.378L180.461 14.3371L183.979 14.3371V21.9188H181.798ZM196.818 21.9188H193.665L191.112 19.4998L188.575 21.9188L185.446 21.9188L189.588 18.0549L185.665 14.3371H188.737L191.161 16.61L193.584 14.3371L196.551 14.3371L192.668 18.0305L196.818 21.9188Z" fill="#E3242D"/>
</svg>
