<svg width="848" height="162" viewBox="0 0 848 162" fill="none" xmlns="http://www.w3.org/2000/svg">
<path d="M154.502 0.187027C150.845 0.187027 117.91 0.187027 114.94 0.187027C112.768 0.187027 111.131 2.08578 109.969 3.71038C107.06 7.78203 105.16 12.7574 102.958 17.2656L95.9667 31.5926L88.238 47.4324L82.237 59.7286L80.8428 62.5919C80.7822 62.7239 80.2871 63.4651 80.3477 63.6073L56.3434 3.6393L56.2626 3.65961C55.5251 1.63901 53.6157 0.197181 51.3526 0.197181H5.25347C2.35396 0.187027 0 2.5427 0 5.46697V155.854C0 158.768 2.35396 161.134 5.25347 161.134H14.2046C17.1041 161.134 19.458 158.768 19.458 155.854V63.851C20.0137 65.2624 20.5794 66.6737 21.1351 68.0749C27.3989 83.8742 33.6727 99.6734 39.9365 115.473C44.7353 127.586 49.4735 139.72 54.3027 151.813C54.8078 153.062 55.313 154.311 55.8585 155.549C57.0405 158.271 58.3539 161.875 61.8798 161.875H62.3445C65.3855 161.875 66.719 159.245 67.9718 156.859C69.6691 153.63 71.0936 150.27 72.5181 146.919L77.6806 134.724C79.8325 129.637 101.432 78.6044 103.271 74.2484L106.878 65.7294C107.201 64.9781 107.514 64.2165 107.838 63.4651V155.854C107.838 158.758 110.181 161.104 113.061 161.104H154.502C157.392 161.104 159.726 158.748 159.726 155.854V5.43651C159.726 2.53254 157.382 0.187027 154.502 0.187027Z" fill="#305390"/>
<path d="M842.686 110.142H819.237C816.297 110.142 813.913 112.538 813.913 115.493V138.978H756.175V5.5277C756.175 2.57296 753.791 0.176674 750.851 0.176674H701.832C698.892 0.176674 696.508 2.57296 696.508 5.5277V155.773C696.508 158.727 698.892 161.124 701.832 161.124H842.676C845.615 161.124 848 158.727 848 155.773V115.493C848 112.538 845.615 110.142 842.676 110.142H842.686Z" fill="#305390"/>
<path d="M303.964 51.1992H323.967C326.907 51.1992 329.292 48.8029 329.292 45.8482V5.5277C329.292 2.57296 326.907 0.176674 323.967 0.176674H183.902C180.962 0.176674 178.578 2.57296 178.578 5.5277V155.773C178.578 158.727 180.962 161.124 183.902 161.124H213.048V161.164L323.977 161.063C326.917 161.063 329.302 158.666 329.302 155.712V115.391C329.302 112.436 326.917 110.04 323.977 110.04H303.974C301.034 110.04 298.65 112.436 298.65 115.391V131.119C298.296 136.744 293.649 141.202 287.961 141.202H240.164C239.296 141.202 238.558 140.674 238.235 139.923V91.7634L263.421 117.077C265.088 118.752 267.786 118.752 269.442 117.077L298.438 87.9355C300.104 86.2601 300.104 83.549 298.438 81.8838L269.442 52.7426C267.775 51.0672 265.078 51.0672 263.421 52.7426L238.235 78.0559V21.3675C238.558 20.6162 239.296 20.0882 240.164 20.0882H287.961C293.649 20.0882 298.286 24.5457 298.65 30.1708V45.8482C298.65 48.8029 301.034 51.1992 303.974 51.1992H303.964Z" fill="#305390"/>
<path d="M505.748 0.176674H493.846C490.907 0.176674 488.522 2.57296 488.522 5.5277V122.56L418.358 6.08615C415.651 1.81143 414.661 0.176674 411.721 0.176674H354.741C351.801 0.176674 349.417 2.57296 349.417 5.5277V155.773C349.417 158.727 351.801 161.124 354.741 161.124H366.642C369.582 161.124 371.966 158.727 371.966 155.773V45.1577L432.048 146.888C437.574 156.453 439.392 161.053 447.475 161.053L505.738 161.124C508.677 161.124 511.062 158.727 511.062 155.773V5.5277C511.062 2.57296 508.677 0.176674 505.738 0.176674H505.748Z" fill="#305390"/>
<path d="M598.411 0.126068C593.612 0.126068 537.794 0.176837 537.794 0.176837C534.854 0.176837 532.469 2.57312 532.469 5.52786V155.773C532.469 158.727 534.854 161.124 537.794 161.124H598.411C616.788 161.124 630.133 163.459 646.773 152.564C667.918 138.725 681.082 110.04 681.082 80.8788C681.082 23.1954 645.793 0.126068 598.411 0.126068ZM625.739 121.656C625.739 123.271 625.537 124.885 625.122 126.449C622.991 134.572 615.373 140.502 606.968 140.359C602.33 140.278 601.553 140.38 596.895 140.38C594.39 140.38 592.359 138.45 592.137 135.993V27.0741C592.359 24.6169 594.39 22.6877 596.895 22.6877H597.622C602.482 22.6877 607.432 22.5354 612.181 23.7741C620.051 25.8353 625.739 33.5522 625.739 41.6752V121.666V121.656Z" fill="#305390"/>
</svg>
